<svg width="15" height="18" viewBox="0 0 15 18" fill="none" xmlns="http://www.w3.org/2000/svg">
<path d="M14.2434 11.6346C13.6746 11.0445 13.0867 10.4342 13.0867 7.55353C13.0867 4.63465 11.0457 2.20718 8.3836 1.76112C8.50622 1.574 8.57173 1.35214 8.57143 1.125C8.57143 0.503684 8.09174 0 7.50001 0C6.90828 0 6.42858 0.503684 6.42858 1.125C6.42827 1.35214 6.49377 1.57401 6.61638 1.76115C3.95428 2.20721 1.91328 4.63468 1.91328 7.55357C1.91328 10.434 1.32563 11.0443 0.756704 11.6344C-0.853653 13.3046 0.325654 15.75 2.2406 15.75H5.35715C5.35715 16.9926 6.31655 18 7.50001 18C8.68347 18 9.64286 16.9926 9.64286 15.75H12.7594C14.6742 15.75 15.8536 13.3037 14.2434 11.6346ZM7.50001 16.5938C7.0569 16.5938 6.69644 16.2153 6.69644 15.75H8.30358C8.30358 16.2153 7.94311 16.5938 7.50001 16.5938ZM12.7598 14.0625H2.23996C1.67873 14.0625 1.39839 13.3457 1.79351 12.9308C2.7506 11.9258 3.52042 10.9717 3.52042 7.55357C3.52042 5.2495 5.30565 3.375 7.50001 3.375C9.69436 3.375 11.4796 5.2495 11.4796 7.55357C11.4796 10.9866 12.2571 11.9331 13.2062 12.9308C13.6031 13.3475 13.3186 14.0625 12.7598 14.0625Z" fill="white"/>
</svg>
