<svg width="9" height="10" viewBox="0 0 9 10" fill="none" xmlns="http://www.w3.org/2000/svg">
<path d="M8.75893 3.125H0.241071C0.108482 3.125 0 3.01953 0 2.89062V2.1875C0 1.66992 0.43192 1.25 0.964286 1.25H1.92857V0.234375C1.92857 0.105469 2.03705 0 2.16964 0H2.97321C3.1058 0 3.21429 0.105469 3.21429 0.234375V1.25H5.78571V0.234375C5.78571 0.105469 5.8942 0 6.02679 0H6.83036C6.96295 0 7.07143 0.105469 7.07143 0.234375V1.25H8.03571C8.56808 1.25 9 1.66992 9 2.1875V2.89062C9 3.01953 8.89152 3.125 8.75893 3.125ZM0.241071 3.75H8.75893C8.89152 3.75 9 3.85547 9 3.98438V9.0625C9 9.58008 8.56808 10 8.03571 10H0.964286C0.43192 10 0 9.58008 0 9.0625V3.98438C0 3.85547 0.108482 3.75 0.241071 3.75ZM2.57143 7.73438C2.57143 7.60547 2.46295 7.5 2.33036 7.5H1.52679C1.3942 7.5 1.28571 7.60547 1.28571 7.73438V8.51562C1.28571 8.64453 1.3942 8.75 1.52679 8.75H2.33036C2.46295 8.75 2.57143 8.64453 2.57143 8.51562V7.73438ZM2.57143 5.23438C2.57143 5.10547 2.46295 5 2.33036 5H1.52679C1.3942 5 1.28571 5.10547 1.28571 5.23438V6.01562C1.28571 6.14453 1.3942 6.25 1.52679 6.25H2.33036C2.46295 6.25 2.57143 6.14453 2.57143 6.01562V5.23438ZM5.14286 7.73438C5.14286 7.60547 5.03437 7.5 4.90179 7.5H4.09821C3.96563 7.5 3.85714 7.60547 3.85714 7.73438V8.51562C3.85714 8.64453 3.96563 8.75 4.09821 8.75H4.90179C5.03437 8.75 5.14286 8.64453 5.14286 8.51562V7.73438ZM5.14286 5.23438C5.14286 5.10547 5.03437 5 4.90179 5H4.09821C3.96563 5 3.85714 5.10547 3.85714 5.23438V6.01562C3.85714 6.14453 3.96563 6.25 4.09821 6.25H4.90179C5.03437 6.25 5.14286 6.14453 5.14286 6.01562V5.23438ZM7.71429 7.73438C7.71429 7.60547 7.6058 7.5 7.47321 7.5H6.66964C6.53705 7.5 6.42857 7.60547 6.42857 7.73438V8.51562C6.42857 8.64453 6.53705 8.75 6.66964 8.75H7.47321C7.6058 8.75 7.71429 8.64453 7.71429 8.51562V7.73438ZM7.71429 5.23438C7.71429 5.10547 7.6058 5 7.47321 5H6.66964C6.53705 5 6.42857 5.10547 6.42857 5.23438V6.01562C6.42857 6.14453 6.53705 6.25 6.66964 6.25H7.47321C7.6058 6.25 7.71429 6.14453 7.71429 6.01562V5.23438Z" fill="#0F1E7A"/>
</svg>
