<svg width="19" height="16" viewBox="0 0 19 16" fill="none" xmlns="http://www.w3.org/2000/svg">
<path d="M19 8.00773C19 4.37432 14.7759 1.62009 9.67812 1.62009C8.8808 1.62009 8.0962 1.68675 7.33281 1.82009C6.86205 1.38258 6.30647 0.986737 5.7212 0.678397C2.59554 -0.825804 0 0.640896 0 0.640896C0 0.640896 2.41317 2.60344 2.01875 4.32015C-0.19933 6.49936 -0.207813 9.4911 2.01875 11.6786C2.41317 13.3995 0 15.3579 0 15.3579C0 15.3579 2.59554 16.8246 5.7212 15.3246C6.30647 15.0121 6.86205 14.6204 7.33281 14.1829C8.0962 14.3162 8.8808 14.3829 9.67812 14.3829C14.7801 14.3787 19 11.6411 19 8.00773ZM9.68237 13.1745C8.67723 13.1745 7.71875 13.0578 6.82812 12.8495C5.92478 13.9245 3.93996 15.4204 2.01027 14.9371C2.63795 14.2704 3.56674 13.1412 3.36741 11.287C2.2096 10.3953 1.5183 9.25776 1.5183 8.01606C1.5183 5.166 5.17411 2.85345 9.68237 2.85345C14.1906 2.85345 17.8464 5.166 17.8464 8.01606C17.8464 10.862 14.1906 13.1745 9.68237 13.1745ZM10.7681 8.0119C10.7681 8.60358 10.2804 9.08692 9.68237 9.08692C9.08437 9.08692 8.59665 8.60775 8.59665 8.0119C8.59665 7.42022 9.08437 6.93687 9.68237 6.93687C10.2804 6.93687 10.7681 7.42022 10.7681 8.0119ZM14.5384 8.0119C14.5384 8.60358 14.0549 9.08692 13.4527 9.08692C12.8547 9.08692 12.367 8.60775 12.367 8.0119C12.367 7.42022 12.8504 6.93687 13.4527 6.93687C14.0507 6.93687 14.5384 7.42022 14.5384 8.0119ZM6.99353 8.0119C6.99353 8.60358 6.51004 9.08692 5.90781 9.08692C5.30982 9.08692 4.8221 8.60775 4.8221 8.0119C4.8221 7.42022 5.30558 6.93687 5.90781 6.93687C6.51004 6.93687 6.99353 7.42022 6.99353 8.0119Z" fill="white"/>
</svg>
