<svg width="19" height="5" viewBox="0 0 19 5" fill="none" xmlns="http://www.w3.org/2000/svg">
<path d="M12.2581 2.5C12.2581 1.11806 11.0246 0 9.5 0C7.9754 0 6.74194 1.11806 6.74194 2.5C6.74194 3.88194 7.9754 5 9.5 5C11.0246 5 12.2581 3.88194 12.2581 2.5ZM16.2419 5C14.7173 5 13.4839 3.88194 13.4839 2.5C13.4839 1.11806 14.7173 0 16.2419 0C17.7665 0 19 1.11806 19 2.5C19 3.88194 17.7665 5 16.2419 5ZM2.75806 5C1.23347 5 0 3.88194 0 2.5C0 1.11806 1.23347 0 2.75806 0C4.28266 0 5.51613 1.11806 5.51613 2.5C5.51613 3.88194 4.28266 5 2.75806 5Z" fill="#E5E5E5"/>
</svg>
