<svg width="28" height="29" viewBox="0 0 28 29" fill="none" xmlns="http://www.w3.org/2000/svg">
<path fill-rule="evenodd" clip-rule="evenodd" d="M5.59996 4.34999C4.85735 4.34999 4.14516 4.65553 3.62006 5.19938C3.09496 5.74324 2.79996 6.48086 2.79996 7.24999V21.75C2.79996 22.5191 3.09496 23.2567 3.62006 23.8006C4.14516 24.3445 4.85735 24.65 5.59996 24.65H22.4C23.1426 24.65 23.8548 24.3445 24.3799 23.8006C24.905 23.2567 25.2 22.5191 25.2 21.75V7.24999C25.2 6.48086 24.905 5.74324 24.3799 5.19938C23.8548 4.65553 23.1426 4.34999 22.4 4.34999H5.59996ZM22.4 21.75H5.59996L11.2 10.15L15.4 18.85L18.2 13.05L22.4 21.75Z" fill="#ED3237"/>
</svg>
