<svg width="28" height="28" viewBox="0 0 28 28" fill="none" xmlns="http://www.w3.org/2000/svg">
<g clip-path="url(#clip0_7:46)">
<path d="M18.8853 8.87042C18.9305 8.69841 18.927 8.51723 18.8751 8.34712C18.8232 8.17702 18.725 8.02471 18.5915 7.90724C18.458 7.78976 18.2944 7.71174 18.1191 7.68192C17.9437 7.6521 17.7636 7.67164 17.5987 7.73837L3.69781 13.3804C3.52541 13.4503 3.37708 13.5689 3.27092 13.7217C3.16476 13.8745 3.10535 14.0549 3.09996 14.2408C3.09456 14.4268 3.1434 14.6103 3.24052 14.769C3.33764 14.9277 3.47884 15.0546 3.6469 15.1344L8.14952 17.2719C8.33773 17.3612 8.54992 17.3867 8.75396 17.3446C8.95799 17.3025 9.14276 17.1951 9.28029 17.0387L12.1744 13.7495C12.3423 13.5586 12.5791 13.4423 12.8328 13.4261C13.0865 13.4099 13.3362 13.4951 13.5271 13.663C13.7179 13.831 13.8342 14.0678 13.8504 14.3215C13.8666 14.5752 13.7814 14.8249 13.6135 15.0158L10.7194 18.3049C10.5817 18.4613 10.4987 18.6582 10.4829 18.8659C10.4672 19.0736 10.5195 19.2809 10.632 19.4562L13.3258 23.6494C13.4262 23.806 13.57 23.93 13.7397 24.0062C13.9094 24.0824 14.0976 24.1077 14.2813 24.0788C14.4651 24.0499 14.6365 23.9682 14.7746 23.8436C14.9127 23.719 15.0116 23.5569 15.0591 23.377L18.886 8.87105L18.8853 8.87042Z" fill="#ED3237"/>
</g>
<defs>
<clipPath id="clip0_7:46">
<rect width="19.1692" height="19.1692" fill="white" transform="translate(12.6627 0.135956) rotate(41.3439)"/>
</clipPath>
</defs>
</svg>
