<svg width="22" height="23" viewBox="0 0 22 23" fill="none" xmlns="http://www.w3.org/2000/svg">
<path d="M13.5923 14.2102C12.9047 14.9288 11.9723 15.3325 11 15.3325C10.0277 15.3325 9.09527 14.9288 8.40767 14.2102H13.5923ZM8.25 9.58333H8.25917H8.25ZM13.75 9.58333H13.7592H13.75ZM19.25 11.5C19.25 12.6327 19.0366 13.7542 18.622 14.8006C18.2074 15.8471 17.5997 16.7979 16.8336 17.5988C16.0675 18.3997 15.1581 19.035 14.1571 19.4685C13.1562 19.9019 12.0834 20.125 11 20.125C9.91659 20.125 8.8438 19.9019 7.84286 19.4685C6.84193 19.035 5.93245 18.3997 5.16637 17.5988C4.40029 16.7979 3.7926 15.8471 3.37799 14.8006C2.96339 13.7542 2.75 12.6327 2.75 11.5C2.75 9.21251 3.61919 7.01871 5.16637 5.4012C6.71354 3.7837 8.81196 2.875 11 2.875C13.188 2.875 15.2865 3.7837 16.8336 5.4012C18.3808 7.01871 19.25 9.21251 19.25 11.5Z" stroke="#B7B7B7" stroke-width="2" stroke-linecap="round" stroke-linejoin="round"/>
</svg>
