<svg width="9" height="8" viewBox="0 0 9 8" fill="none" xmlns="http://www.w3.org/2000/svg">
<path d="M3.65651 1.85221H8.71876C8.87344 1.85221 9 1.71888 9 1.55593V0.815231C9 0.652277 8.87344 0.518951 8.71876 0.518951H3.65651C3.50183 0.518951 3.37527 0.652277 3.37527 0.815231V1.55593C3.37527 1.71888 3.50183 1.85221 3.65651 1.85221ZM3.65651 4.815H8.71876C8.87344 4.815 9 4.68167 9 4.51872V3.77802C9 3.61507 8.87344 3.48174 8.71876 3.48174H3.65651C3.50183 3.48174 3.37527 3.61507 3.37527 3.77802V4.51872C3.37527 4.68167 3.50183 4.815 3.65651 4.815ZM3.65651 7.77779H8.71876C8.87344 7.77779 9 7.64447 9 7.48151V6.74081C9 6.57786 8.87344 6.44453 8.71876 6.44453H3.65651C3.50183 6.44453 3.37527 6.57786 3.37527 6.74081V7.48151C3.37527 7.64447 3.50183 7.77779 3.65651 7.77779ZM1.12538 6.22233C0.659587 6.22233 0.271129 6.62045 0.271129 7.11116C0.271129 7.60188 0.659587 8 1.12538 8C1.59118 8 1.96909 7.60188 1.96909 7.11116C1.96909 6.62045 1.59118 6.22233 1.12538 6.22233ZM2.75128 0.685609L1.4822 2.02257L1.208 2.31144C1.12538 2.39847 0.981251 2.39847 0.898638 2.31144L0.0619599 1.43371C-0.0206533 1.34668 -0.0206533 1.20595 0.0619599 1.11892L0.337923 0.828193C0.420536 0.741161 0.554123 0.741161 0.636737 0.828193L1.03574 1.23743L2.15541 0.065274C2.23803 -0.021758 2.37161 -0.021758 2.45423 0.065274L2.75304 0.370812C2.83389 0.457844 2.83389 0.598577 2.75128 0.685609ZM2.75128 3.64099L1.4822 4.97795L1.20624 5.26868C1.12363 5.35571 0.979493 5.35571 0.89688 5.26868L0.0619599 4.3891C-0.0206533 4.30207 -0.0206533 4.16133 0.0619599 4.0743L0.337923 3.78358C0.420536 3.69655 0.554123 3.69655 0.636737 3.78358L1.03574 4.19281L2.15541 3.01325C2.23803 2.92622 2.37161 2.92622 2.45423 3.01325L2.75304 3.32805C2.83389 3.41323 2.83389 3.55396 2.75128 3.64099Z" fill="#0F1E7A"/>
</svg>
