<svg width="16" height="16" viewBox="0 0 16 16" fill="none" xmlns="http://www.w3.org/2000/svg">
<path d="M1.33333 8.66666C1.33333 7.07536 1.96547 5.54923 3.09069 4.42402C4.21591 3.2988 5.74203 2.66666 7.33333 2.66666M13.3333 8.66666C13.3333 10.258 12.7012 11.7841 11.576 12.9093C10.4508 14.0345 8.92463 14.6667 7.33333 14.6667L13.3333 8.66666ZM13.3333 8.66666C13.3333 7.07536 12.7012 5.54923 11.576 4.42402C10.4508 3.2988 8.92463 2.66666 7.33333 2.66666L13.3333 8.66666ZM13.3333 8.66666H1.33333H13.3333ZM7.33333 14.6667C5.74203 14.6667 4.21591 14.0345 3.09069 12.9093C1.96547 11.7841 1.33333 10.258 1.33333 8.66666L7.33333 14.6667ZM7.33333 14.6667C8.438 14.6667 9.33333 11.98 9.33333 8.66666C9.33333 5.35332 8.438 2.66666 7.33333 2.66666V14.6667ZM7.33333 14.6667C6.22866 14.6667 5.33333 11.98 5.33333 8.66666C5.33333 5.35332 6.22866 2.66666 7.33333 2.66666V14.6667Z" stroke="#6F6F6F" stroke-width="0.5" stroke-linecap="round" stroke-linejoin="round"/>
</svg>
