<svg width="20" height="20" viewBox="0 0 20 20" fill="none" xmlns="http://www.w3.org/2000/svg">
<g id="24 / reactions / laughing">
<path id="icon" fill-rule="evenodd" clip-rule="evenodd" d="M0.833336 10C0.833336 15.0626 4.93739 19.1667 10 19.1667C15.0626 19.1667 19.1667 15.0626 19.1667 10C19.1667 4.9374 15.0626 0.833344 10 0.833344C4.93739 0.833344 0.833336 4.9374 0.833336 10ZM17.5 10C17.5 14.1421 14.1421 17.5 10 17.5C5.85787 17.5 2.5 14.1421 2.5 10C2.5 5.85787 5.85787 2.50001 10 2.50001C14.1421 2.50001 17.5 5.85787 17.5 10ZM10.0267 15.8333C7.22883 15.8333 5.67202 14.3597 5.67202 11.6667V10.8333H14.2632L14.2862 11.643C14.3632 14.3454 12.8336 15.8333 10.0267 15.8333ZM12.5729 12.5C12.3772 13.6629 11.5908 14.1667 10.0267 14.1667C8.46356 14.1667 7.6515 13.6585 7.41397 12.5H12.5729ZM11.6667 6.66668H14.1667V8.33334H11.6667V6.66668ZM8.33334 6.66668H5.83334V8.33334H8.33334V6.66668Z" fill="#0F1E7A"/>
</g>
</svg>
